# xmcd
#
# Track frame offsets:
#	150
#	19763
#	42458
#	62118
#	80268
#	98775
#	114683
#	132788
#	154263
#	173438
#
# Disc length: 2566 seconds
#
# Revision: 1
# Processed by: cddbd v1.5.2PL0 Copyright (c) Steve Scherf et al.
# Submitted via: EZCDAudioConverter 7.1.5.1
#
DISCID=790a040a
DTITLE=黄安 - 新鸳鸯蝴蝶梦
DYEAR=1993
DGENRE=
TTITLE0=新鸳鸯蝴蝶梦
TTITLE1=爱与喜欢之间
TTITLE2=爱别离
TTITLE3=野火在轻轻的烧
TTITLE4=古老的眼泪
TTITLE5=陪你到天涯
TTITLE6=你好坏
TTITLE7=关于於那些难以开口的事
TTITLE8=床的前面月亮的光
TTITLE9=点一首歌给你听
EXTD=
EXTT0=
EXTT1=
EXTT2=
EXTT3=
EXTT4=
EXTT5=
EXTT6=
EXTT7=
EXTT8=
EXTT9=
PLAYORDER=
